<svg xmlns="http://www.w3.org/2000/svg" width="20" height="20" viewBox="0 0 20 20">
  <g id="グループ_4393" data-name="グループ 4393" transform="translate(-16308 666)">
    <rect id="長方形_18095" data-name="長方形 18095" width="20" height="20" transform="translate(16308 -666)" fill="#fff" opacity="0"/>
    <path id="パス_379" data-name="パス 379" d="M91.515,6.46V4.611a1.487,1.487,0,0,0-1.486-1.486H85.914a1.487,1.487,0,0,0-1.486,1.486V6.46H81.094V18.548H91.723V17.3H82.345V7.71h2.084V8.752h1.25V7.71h4.585V8.752h1.25V7.71H93.6V18.756h1.25V6.46Zm-5.836,0V4.611a.235.235,0,0,1,.235-.235h4.115a.235.235,0,0,1,.235.235V6.46Z" transform="translate(16230.276 -667.187)"/>
  </g>
</svg>
