<svg xmlns="http://www.w3.org/2000/svg" width="20" height="20" viewBox="0 0 20 20">
  <g id="グループ_4394" data-name="グループ 4394" transform="translate(-16308 756)">
    <rect id="長方形_18020" data-name="長方形 18020" width="20" height="20" transform="translate(16308 -756)" fill="#fff" opacity="0"/>
    <g id="グループ_3734" data-name="グループ 3734" transform="translate(16311.298 -753.526)">
      <path id="パス_381" data-name="パス 381" d="M88.478-78.66a4.074,4.074,0,0,0,4.068-4.069A4.073,4.073,0,0,0,88.478-86.8a4.074,4.074,0,0,0-4.069,4.068A4.074,4.074,0,0,0,88.478-78.66Zm0-6.9a2.835,2.835,0,0,1,2.831,2.831A2.835,2.835,0,0,1,88.478-79.9a2.835,2.835,0,0,1-2.832-2.832A2.835,2.835,0,0,1,88.478-85.56Z" transform="translate(-81.859 86.797)"/>
      <path id="パス_382" data-name="パス 382" d="M92.417-73.5A4.063,4.063,0,0,0,89-75.579H86.874A4.064,4.064,0,0,0,83.453-73.5l-2.137,3.432,1.05.653L84.5-72.847a2.856,2.856,0,0,1,2.37-1.5H89a2.858,2.858,0,0,1,2.371,1.5L93.5-69.416l1.05-.653Z" transform="translate(-81.316 84.828)"/>
    </g>
  </g>
</svg>
